<svg width="29" height="29" viewBox="0 0 29 29" fill="none" xmlns="http://www.w3.org/2000/svg">
<path d="M4.3453 24.7755L11.77 17.3508M21.1196 14.0492L18.8971 20.7167C18.8617 20.8236 18.8009 20.9203 18.7201 20.9987C18.6393 21.0771 18.5407 21.1348 18.4328 21.167L4.80847 25.2165C4.68573 25.253 4.55534 25.2551 4.43149 25.2225C4.30764 25.19 4.19508 25.1242 4.10605 25.0322C4.01703 24.9401 3.95495 24.8254 3.92658 24.7006C3.89821 24.5757 3.90463 24.4455 3.94514 24.324L8.36914 11.0543C8.40084 10.9591 8.45268 10.8717 8.52112 10.7982C8.58956 10.7248 8.67301 10.6669 8.7658 10.6285L15.0506 8.04084C15.1784 7.98807 15.3189 7.97431 15.4545 8.00131C15.5901 8.0283 15.7147 8.09483 15.8125 8.19251L20.9505 13.3328C21.0424 13.4248 21.1069 13.5405 21.1368 13.667C21.1667 13.7935 21.1607 13.9258 21.1196 14.0492Z" stroke="white" stroke-width="1.75" stroke-linecap="round"/>
<path d="M21.2573 13.6384L24.5566 10.3379C24.9941 9.90034 25.2398 9.30695 25.2398 8.68824C25.2398 8.06952 24.9941 7.47613 24.5566 7.03857L22.0833 4.5629C21.8666 4.34613 21.6094 4.17418 21.3262 4.05686C21.0431 3.93954 20.7396 3.87915 20.4331 3.87915C20.1266 3.87915 19.8231 3.93954 19.5399 4.05686C19.2568 4.17418 18.9995 4.34613 18.7828 4.5629L15.4835 7.8634M14.2445 14.8751C14.0819 14.7126 13.889 14.5837 13.6766 14.4958C13.4642 14.4079 13.2366 14.3627 13.0068 14.3628C12.777 14.3628 12.5494 14.4081 12.3371 14.4961C12.1248 14.5841 11.9319 14.7131 11.7694 14.8757C11.6069 15.0382 11.478 15.2312 11.3901 15.4435C11.3022 15.6559 11.257 15.8835 11.2571 16.1133C11.2571 16.3431 11.3025 16.5707 11.3905 16.783C11.4785 16.9954 11.6074 17.1883 11.77 17.3507C12.0983 17.6789 12.5435 17.8632 13.0076 17.8631C13.4718 17.8629 13.9169 17.6784 14.2451 17.3502C14.5732 17.0219 14.7575 16.5767 14.7574 16.1125C14.7573 15.6483 14.5728 15.2032 14.2445 14.8751Z" stroke="white" stroke-width="1.75" stroke-linecap="round"/>
</svg>
