<svg width="29" height="30" viewBox="0 0 29 30" fill="none" xmlns="http://www.w3.org/2000/svg">
<path d="M13.8561 25.3972C14.0412 25.5381 14.2674 25.6144 14.5001 25.6144C14.7328 25.6144 14.959 25.5381 15.1441 25.3972C17.1198 23.9146 22.9584 19.0728 22.9584 13.5507V7.5936C22.9597 7.43994 22.9039 7.29127 22.8019 7.17633C22.6999 7.06139 22.5589 6.98834 22.4062 6.97131C19.9867 6.72349 17.6678 5.87354 15.6613 4.49906L14.9242 3.99518C14.7994 3.90945 14.6515 3.86357 14.5001 3.86357C14.3487 3.86357 14.2008 3.90945 14.076 3.99518L13.3389 4.49906C11.3324 5.87354 9.01348 6.72349 6.59398 6.97131C6.44126 6.98834 6.30027 7.06139 6.19828 7.17633C6.09629 7.29127 6.04052 7.43994 6.04177 7.5936V13.5507C6.04177 19.0728 11.8804 23.9146 13.8561 25.3948" stroke="white" stroke-width="1.8125" stroke-linecap="round"/>
</svg>
