<svg width="28" height="29" viewBox="0 0 28 29" fill="none" xmlns="http://www.w3.org/2000/svg">
<path d="M14 3.36475C13.4532 3.36475 12.9098 3.5485 12.4417 3.8845L10.9927 4.896L9.32315 5.11475H9.29603L9.2689 5.14187C8.72118 5.26513 8.21968 5.54131 7.8227 5.93829C7.42571 6.33528 7.14954 6.83677 7.02628 7.3845L7.00003 7.41162V7.43875L6.78128 9.1345L5.76978 10.447L5.74178 10.4741V10.5012C5.13015 11.4786 5.10303 12.7404 5.76978 13.6731L6.8084 15.1221L7.08228 16.6271L4.26565 20.919L3.36353 22.2595H7.5469L8.5584 24.6106L9.18753 26.1147L10.0897 24.7471L12.8512 20.5909C13.5932 20.8954 14.4305 20.9234 15.1489 20.5909L17.9104 24.7471L18.8125 26.1147L19.4417 24.6106L20.4531 22.2595H24.6365L23.7344 20.919L21 16.7636L21.2188 15.123L22.2303 13.674L22.2583 13.6469V13.6197C22.8699 12.6424 22.897 11.4077 22.2303 10.475L21.2188 9.02512L20.8906 7.3845H20.9178C20.9143 7.3635 20.8941 7.3495 20.8906 7.32937C20.7332 6.18487 19.8275 5.25562 18.676 5.11475H18.648L17.0074 4.896L15.5584 3.8845C15.106 3.55276 14.561 3.37101 14 3.36475ZM14 5.14187C14.2013 5.14187 14.3999 5.20312 14.5469 5.30637L16.1053 6.42725L16.2969 6.56375L16.5157 6.59175L18.4302 6.86475H18.4564C18.8502 6.9085 19.1232 7.18237 19.1678 7.57612V7.63037L19.5239 9.572L19.5502 9.76362L19.6875 9.92725L20.8084 11.4856C21.0175 11.7761 21.0447 12.2687 20.7813 12.6887L19.551 14.4116L19.523 14.6304L19.25 16.5449V16.5711C19.2353 16.7078 19.1885 16.8391 19.1135 16.9544L19.0584 16.9824V17.0086C18.9284 17.1648 18.7418 17.2633 18.5395 17.2825H18.4844L16.4885 17.6386L16.2698 17.6649L16.1053 17.8022L14.5469 18.9231C14.2564 19.1322 13.7367 19.1594 13.3167 18.896L11.8948 17.8022L11.7303 17.6657L11.4844 17.6377L9.5699 17.3647H9.54365C9.42002 17.3535 9.30089 17.3128 9.19617 17.2461C9.09145 17.1795 9.00418 17.0887 8.94165 16.9815C8.88372 16.8805 8.84654 16.7689 8.83228 16.6534V16.5991L8.47703 14.6032L8.44903 14.3845L8.31253 14.22L7.19165 12.6616C6.98253 12.3711 6.9554 11.8514 7.21878 11.4314L8.31253 10.0095L8.44903 9.845L8.47615 9.59912L8.7229 7.76687C8.7264 7.75375 8.74653 7.75375 8.75003 7.73975C8.80508 7.52936 8.91514 7.33742 9.06892 7.18364C9.2227 7.02986 9.41464 6.9198 9.62503 6.86475C9.63903 6.86125 9.63903 6.84112 9.65215 6.83762L11.4844 6.59087L11.7032 6.56462L11.8948 6.42725L13.4532 5.30637C13.6002 5.204 13.7988 5.14187 14 5.14187ZM20.0428 18.4585L21.3833 20.5095H19.2763L19.0575 21.0564L18.4564 22.4502L16.597 19.6065L17.0065 19.3064L18.7303 19.0054V19.0325C18.7504 19.029 18.7635 19.0089 18.7845 19.0054C19.2451 18.9389 19.6802 18.7501 20.0428 18.4585ZM7.95728 18.4856C8.33722 18.831 8.81454 19.0508 9.32403 19.1147H9.35115L11.0198 19.3335L11.4022 19.6345L9.54278 22.4502L8.94165 21.0564L8.7229 20.5095H6.61765L7.95728 18.4856Z" fill="white"/>
</svg>
