<svg width="17" height="14" viewBox="0 0 17 14" fill="none" xmlns="http://www.w3.org/2000/svg">
<path d="M0.0385742 13.6632V12.6632H4.90357C4.60091 11.4638 4.01424 10.4288 3.14357 9.55816C2.27291 8.6875 1.23791 8.10083 0.0385742 7.79816C0.320574 7.72683 0.598241 7.6735 0.871574 7.63816C1.14491 7.6035 1.43124 7.58616 1.73057 7.58616C3.61724 7.58616 5.21724 8.12716 6.53057 9.20916C7.84391 10.2912 8.50024 11.7758 8.49957 13.6632H0.0385742ZM9.49957 13.6632C9.49957 13.3218 9.47291 12.9655 9.41957 12.5942C9.36624 12.2228 9.27424 11.8555 9.14357 11.4922C9.69024 10.4108 10.4809 9.4895 11.5156 8.72816C12.5502 7.96683 13.8012 7.58616 15.2686 7.58616C15.5672 7.58616 15.8536 7.60383 16.1276 7.63916C16.4009 7.6745 16.6789 7.72716 16.9616 7.79716C15.7629 8.09983 14.7319 8.6865 13.8686 9.55716C13.0052 10.4278 12.4142 11.4632 12.0956 12.6632H16.9616V13.6632H9.49957ZM8.72957 10.4952C8.58957 9.41183 8.64891 8.40183 8.90757 7.46516C9.16624 6.5285 9.58157 5.70683 10.1536 5.00016C10.7256 4.2935 11.4309 3.72083 12.2696 3.28216C13.1089 2.84216 14.0299 2.59283 15.0326 2.53416C13.9706 3.2075 13.1539 3.99116 12.5826 4.88516C12.0106 5.7805 11.6099 6.6955 11.3806 7.63016C10.8392 7.91616 10.3092 8.3355 9.79058 8.88816C9.27258 9.4415 8.91824 9.97716 8.72957 10.4952ZM7.73257 9.12016C7.50657 8.8295 7.22324 8.5405 6.88257 8.25316C6.54191 7.96583 6.19257 7.73616 5.83457 7.56416C5.87257 7.42616 5.90324 7.25816 5.92657 7.06016C5.94991 6.86216 5.96157 6.66816 5.96157 6.47816C5.96157 5.4035 5.79024 4.38916 5.44757 3.43516C5.10557 2.48183 4.62557 1.60883 4.00757 0.816162C5.01757 1.22816 5.91724 1.87716 6.70657 2.76316C7.49591 3.64916 8.04924 4.74516 8.36657 6.05116C8.15657 6.49983 8.00091 7.00016 7.89957 7.55216C7.79824 8.10416 7.74257 8.62683 7.73257 9.12016Z" fill="#00973F"/>
</svg>
