<svg width="16" height="17" viewBox="0 0 16 17" fill="none" xmlns="http://www.w3.org/2000/svg">
<path d="M8.00004 10.7821C8.70728 10.7821 9.38556 10.5011 9.88566 10.001C10.3858 9.50092 10.6667 8.82264 10.6667 8.1154C10.6667 7.40815 10.3858 6.72988 9.88566 6.22978C9.38556 5.72968 8.70728 5.44873 8.00004 5.44873C7.2928 5.44873 6.61452 5.72968 6.11442 6.22978C5.61433 6.72988 5.33337 7.40815 5.33337 8.1154C5.33337 8.82264 5.61433 9.50092 6.11442 10.001C6.61452 10.5011 7.2928 10.7821 8.00004 10.7821Z" stroke="white" stroke-linecap="round"/>
<path d="M2 10.7824V5.44906C2 4.565 2.35119 3.71715 2.97631 3.09203C3.60143 2.46691 4.44928 2.11572 5.33333 2.11572H10.6667C11.5507 2.11572 12.3986 2.46691 13.0237 3.09203C13.6488 3.71715 14 4.565 14 5.44906V10.7824C14 11.6664 13.6488 12.5143 13.0237 13.1394C12.3986 13.7645 11.5507 14.1157 10.6667 14.1157H5.33333C4.44928 14.1157 3.60143 13.7645 2.97631 13.1394C2.35119 12.5143 2 11.6664 2 10.7824Z" stroke="white"/>
<path d="M11.6666 4.45515L11.6725 4.44873" stroke="white" stroke-linecap="round"/>
</svg>
