<svg width="21" height="22" viewBox="0 0 21 22" fill="none" xmlns="http://www.w3.org/2000/svg">
<path d="M10.5 5.36572C9.85103 5.36572 9.21663 5.55817 8.67704 5.91871C8.13744 6.27926 7.71687 6.79172 7.46852 7.39129C7.22017 7.99086 7.15519 8.65061 7.2818 9.28711C7.40841 9.92361 7.72091 10.5083 8.17981 10.9672C8.6387 11.4261 9.22336 11.7386 9.85986 11.8652C10.4964 11.9918 11.1561 11.9268 11.7557 11.6785C12.3553 11.4301 12.8677 11.0095 13.2283 10.4699C13.5888 9.93034 13.7812 9.29594 13.7812 8.64697C13.7812 7.77673 13.4355 6.94213 12.8202 6.32678C12.2048 5.71143 11.3702 5.36572 10.5 5.36572ZM10.5 10.6157C10.1106 10.6157 9.72998 10.5003 9.40622 10.2839C9.08246 10.0676 8.83012 9.76012 8.68111 9.40038C8.5321 9.04064 8.49311 8.64479 8.56908 8.26289C8.64504 7.88099 8.83255 7.53019 9.10788 7.25486C9.38322 6.97952 9.73402 6.79202 10.1159 6.71605C10.4978 6.64009 10.8937 6.67908 11.2534 6.82808C11.6131 6.9771 11.9206 7.22943 12.137 7.55319C12.3533 7.87695 12.4688 8.25759 12.4688 8.64697C12.4688 9.16912 12.2613 9.66988 11.8921 10.0391C11.5229 10.4083 11.0221 10.6157 10.5 10.6157ZM10.5 1.42822C8.58613 1.43039 6.75128 2.19164 5.39797 3.54494C4.04466 4.89825 3.28342 6.73311 3.28125 8.64697C3.28125 11.2228 4.47152 13.9528 6.72656 16.5425C7.73983 17.7127 8.88026 18.7665 10.1268 19.6843C10.2371 19.7616 10.3686 19.803 10.5033 19.803C10.638 19.803 10.7695 19.7616 10.8798 19.6843C12.124 18.7661 13.2622 17.7123 14.2734 16.5425C16.5252 13.9528 17.7188 11.2228 17.7188 8.64697C17.7166 6.73311 16.9553 4.89825 15.602 3.54494C14.2487 2.19164 12.4139 1.43039 10.5 1.42822ZM10.5 18.3267C9.14402 17.2603 4.59375 13.3433 4.59375 8.64697C4.59375 7.08054 5.21601 5.57826 6.32365 4.47062C7.43129 3.36299 8.93357 2.74072 10.5 2.74072C12.0664 2.74072 13.5687 3.36299 14.6763 4.47062C15.784 5.57826 16.4062 7.08054 16.4062 8.64697C16.4062 13.3416 11.856 17.2603 10.5 18.3267Z" fill="#72BD44"/>
</svg>
