<svg width="17" height="17" viewBox="0 0 17 17" fill="none" xmlns="http://www.w3.org/2000/svg">
<path d="M14.1 16.272H13.8987C11.6312 16.0263 9.45264 15.2532 7.53746 14.0145C5.75822 12.8806 4.24736 11.3728 3.10996 9.59576C1.86876 7.67542 1.09553 5.4906 0.852462 3.21701C0.824596 2.94585 0.852109 2.67185 0.933331 2.41164C1.01455 2.15142 1.14779 1.91043 1.32496 1.70326C1.49728 1.49332 1.70998 1.3201 1.95046 1.19385C2.19093 1.0676 2.4543 0.990888 2.72496 0.968262H4.99996C5.49269 0.968759 5.96899 1.14542 6.34287 1.46635C6.71675 1.78727 6.96355 2.2313 7.03871 2.71826C7.12187 3.34376 7.2775 3.95747 7.50246 4.54701C7.63935 4.91747 7.6676 5.31931 7.5839 5.70528C7.50019 6.09125 7.30801 6.44529 7.02996 6.72576L6.49621 7.25951C7.33658 8.58619 8.46383 9.70746 9.79496 10.5408L10.3287 10.0158C10.6092 9.73771 10.9632 9.54553 11.3492 9.46183C11.7352 9.37812 12.137 9.40638 12.5075 9.54326C13.0977 9.76603 13.7111 9.92159 14.3362 10.007C14.8315 10.0815 15.2826 10.3341 15.6048 10.7175C15.927 11.101 16.0982 11.5888 16.0862 12.0895V14.1895C16.0862 14.7357 15.8699 15.2596 15.4845 15.6466C15.0991 16.0336 14.5761 16.2522 14.03 16.2545L14.1 16.272ZM4.99996 2.27201H2.90871C2.80603 2.2788 2.70579 2.30634 2.61405 2.35296C2.52231 2.39958 2.44098 2.46432 2.37496 2.54326C2.31071 2.61721 2.26209 2.70339 2.23201 2.79662C2.20194 2.88986 2.19104 2.98821 2.19996 3.08576C2.41309 5.14773 3.10526 7.13133 4.22121 8.87826C5.25077 10.4941 6.62162 11.865 8.23746 12.8945C9.98506 14.0231 11.9711 14.73 14.0387 14.9595C14.1462 14.965 14.2537 14.9485 14.3545 14.9109C14.4553 14.8732 14.5474 14.8153 14.625 14.7408C14.7643 14.5979 14.8427 14.4065 14.8437 14.207V12.1158C14.8476 11.9316 14.7839 11.7524 14.6646 11.6121C14.5452 11.4718 14.3786 11.3802 14.1962 11.3545C13.4733 11.2575 12.7632 11.0814 12.0787 10.8295C11.9439 10.7791 11.7975 10.7679 11.6565 10.7974C11.5156 10.8268 11.3859 10.8956 11.2825 10.9958L10.4075 11.8708C10.305 11.9707 10.173 12.0349 10.0311 12.0538C9.88924 12.0727 9.74505 12.0453 9.61996 11.9758C7.75287 10.9207 6.20743 9.37828 5.14871 7.51326C5.07624 7.38899 5.04723 7.24411 5.06624 7.10151C5.08525 6.95892 5.15121 6.82671 5.25371 6.72576L6.12871 5.85076C6.22906 5.74928 6.29809 5.62108 6.32756 5.48144C6.35704 5.34181 6.34573 5.19664 6.29496 5.06326C6.04239 4.37895 5.86632 3.6688 5.76996 2.94576C5.74825 2.75787 5.65737 2.58479 5.51503 2.46024C5.37269 2.33569 5.18907 2.26859 4.99996 2.27201Z" fill="#72BD44"/>
</svg>
