<svg width="18" height="21" viewBox="0 0 18 21" fill="none" xmlns="http://www.w3.org/2000/svg">
<path fill-rule="evenodd" clip-rule="evenodd" d="M12.696 8.02176C12.8864 8.20636 12.9957 8.45903 12.9999 8.72421C13.004 8.98938 12.9026 9.24534 12.718 9.43577L8.68802 13.5948C8.5789 13.7077 8.44816 13.7976 8.30359 13.8589C8.15902 13.9203 8.00357 13.9519 7.84652 13.9519C7.68947 13.9519 7.53402 13.9203 7.38945 13.8589C7.24488 13.7976 7.11414 13.7077 7.00502 13.5948L5.28202 11.8168C5.18943 11.7227 5.11638 11.6113 5.06706 11.4889C5.01775 11.3664 4.99316 11.2355 4.9947 11.1035C4.99624 10.9716 5.02389 10.8412 5.07605 10.72C5.12821 10.5987 5.20385 10.489 5.29861 10.3972C5.39337 10.3053 5.50537 10.2331 5.62817 10.1848C5.75096 10.1364 5.88211 10.1128 6.01406 10.1154C6.14601 10.118 6.27614 10.1466 6.39696 10.1997C6.51779 10.2528 6.6269 10.3293 6.71802 10.4248L7.84602 11.5888L11.282 8.04377C11.4666 7.85335 11.7193 7.74405 11.9845 7.73993C12.2496 7.7358 12.5056 7.83718 12.696 8.02176Z" fill="#72BD44"/>
<path fill-rule="evenodd" clip-rule="evenodd" d="M8.06105 1.09977C8.66972 0.891466 9.33038 0.891466 9.93905 1.09977L15.7951 3.09577C16.4148 3.30768 16.945 3.72247 17.2998 4.27306C17.6545 4.82365 17.8132 5.47783 17.7501 6.12977L16.9921 13.9218C16.9523 14.3353 16.8241 14.7355 16.6162 15.0953C16.4083 15.455 16.1255 15.7658 15.7871 16.0068L10.6691 19.6638C10.1827 20.011 9.60119 20.2 9.00363 20.2052C8.40606 20.2104 7.82139 20.0315 7.32905 19.6928L2.25205 16.1978C1.90215 15.957 1.60919 15.6425 1.39377 15.2764C1.17834 14.9104 1.04566 14.5016 1.00505 14.0788L0.245052 6.12577C0.182984 5.47423 0.342372 4.82078 0.697469 4.27099C1.05257 3.7212 1.58263 3.30716 2.20205 3.09577L8.06105 1.09977ZM9.35205 2.81977C9.12372 2.74265 8.87638 2.74265 8.64805 2.81977L2.78905 4.81777C2.55667 4.89682 2.35776 5.05199 2.22455 5.25816C2.09134 5.46433 2.03162 5.70943 2.05505 5.95377L2.81605 13.9068C2.84605 14.2268 3.01805 14.5188 3.28405 14.7018L8.36005 18.1958C8.73805 18.4558 9.24005 18.4518 9.61305 18.1858L14.7321 14.5288C14.8583 14.4377 14.9637 14.321 15.0415 14.1862C15.1192 14.0514 15.1675 13.9016 15.1831 13.7468L15.9421 5.95477C15.966 5.71011 15.9065 5.46455 15.7732 5.25796C15.64 5.05137 15.4408 4.8959 15.2081 4.81677L9.35205 2.81977Z" fill="#72BD44"/>
</svg>
